<mxfile host="app.diagrams.net" modified="2024-05-03T10:22:13.470Z" agent="Mozilla/5.0 (Windows NT 10.0; Win64; x64) AppleWebKit/537.36 (KHTML, like Gecko) Chrome/124.0.0.0 Safari/537.36" etag="7YEb3VYfe-_IeaxEL0Tg" version="24.3.1" type="github">
  <diagram name="Pagina-1" id="36LBCxcCw-jJczAIzWjR">
    <mxGraphModel dx="1114" dy="600" grid="1" gridSize="10" guides="1" tooltips="1" connect="1" arrows="1" fold="1" page="1" pageScale="1" pageWidth="827" pageHeight="1169" background="#FFCE9F" math="0" shadow="0">
      <root>
        <mxCell id="0" />
        <mxCell id="1" parent="0" />
        <mxCell id="a2P4Bpt3vMFnB8kFrf-n-1" value="" style="edgeStyle=orthogonalEdgeStyle;rounded=0;orthogonalLoop=1;jettySize=auto;html=1;" edge="1" parent="1" source="a2P4Bpt3vMFnB8kFrf-n-2">
          <mxGeometry relative="1" as="geometry">
            <mxPoint x="420" y="120" as="targetPoint" />
          </mxGeometry>
        </mxCell>
        <mxCell id="a2P4Bpt3vMFnB8kFrf-n-2" value="Inizio Programma&lt;div&gt;Autonoleggio&lt;/div&gt;" style="ellipse;whiteSpace=wrap;html=1;" vertex="1" parent="1">
          <mxGeometry x="360" y="10" width="120" height="80" as="geometry" />
        </mxCell>
        <mxCell id="a2P4Bpt3vMFnB8kFrf-n-3" style="edgeStyle=orthogonalEdgeStyle;rounded=0;orthogonalLoop=1;jettySize=auto;html=1;exitX=0;exitY=0.5;exitDx=0;exitDy=0;" edge="1" parent="1">
          <mxGeometry relative="1" as="geometry">
            <mxPoint x="190" y="200" as="targetPoint" />
            <mxPoint x="470" y="150" as="sourcePoint" />
            <Array as="points">
              <mxPoint x="191" y="150" />
            </Array>
          </mxGeometry>
        </mxCell>
        <mxCell id="a2P4Bpt3vMFnB8kFrf-n-4" style="edgeStyle=orthogonalEdgeStyle;rounded=0;orthogonalLoop=1;jettySize=auto;html=1;exitX=1;exitY=0.5;exitDx=0;exitDy=0;" edge="1" parent="1">
          <mxGeometry relative="1" as="geometry">
            <mxPoint x="680" y="200" as="targetPoint" />
            <mxPoint x="390" y="150" as="sourcePoint" />
            <Array as="points">
              <mxPoint x="681" y="150" />
            </Array>
          </mxGeometry>
        </mxCell>
        <mxCell id="a2P4Bpt3vMFnB8kFrf-n-5" value="Accedere o Registrarsi" style="rounded=1;whiteSpace=wrap;html=1;" vertex="1" parent="1">
          <mxGeometry x="360" y="120" width="130" height="70" as="geometry" />
        </mxCell>
        <mxCell id="a2P4Bpt3vMFnB8kFrf-n-6" style="edgeStyle=orthogonalEdgeStyle;rounded=0;orthogonalLoop=1;jettySize=auto;html=1;" edge="1" parent="1" source="a2P4Bpt3vMFnB8kFrf-n-7">
          <mxGeometry relative="1" as="geometry">
            <mxPoint x="80" y="580" as="targetPoint" />
          </mxGeometry>
        </mxCell>
        <mxCell id="a2P4Bpt3vMFnB8kFrf-n-7" value="Manager" style="rounded=1;whiteSpace=wrap;html=1;" vertex="1" parent="1">
          <mxGeometry x="130" y="470" width="80" height="50" as="geometry" />
        </mxCell>
        <mxCell id="a2P4Bpt3vMFnB8kFrf-n-8" style="edgeStyle=orthogonalEdgeStyle;rounded=0;orthogonalLoop=1;jettySize=auto;html=1;" edge="1" parent="1" source="a2P4Bpt3vMFnB8kFrf-n-9">
          <mxGeometry relative="1" as="geometry">
            <mxPoint x="470" y="580" as="targetPoint" />
          </mxGeometry>
        </mxCell>
        <mxCell id="a2P4Bpt3vMFnB8kFrf-n-9" value="Cliente" style="rounded=1;whiteSpace=wrap;html=1;" vertex="1" parent="1">
          <mxGeometry x="360" y="470" width="80" height="50" as="geometry" />
        </mxCell>
        <mxCell id="a2P4Bpt3vMFnB8kFrf-n-10" style="edgeStyle=orthogonalEdgeStyle;rounded=0;orthogonalLoop=1;jettySize=auto;html=1;entryX=0.5;entryY=0;entryDx=0;entryDy=0;" edge="1" parent="1" source="a2P4Bpt3vMFnB8kFrf-n-11">
          <mxGeometry relative="1" as="geometry">
            <mxPoint x="290" y="585" as="targetPoint" />
          </mxGeometry>
        </mxCell>
        <mxCell id="a2P4Bpt3vMFnB8kFrf-n-11" value="Batman" style="rounded=1;whiteSpace=wrap;html=1;" vertex="1" parent="1">
          <mxGeometry x="250" y="470" width="80" height="50" as="geometry" />
        </mxCell>
        <mxCell id="a2P4Bpt3vMFnB8kFrf-n-12" value="" style="edgeStyle=orthogonalEdgeStyle;rounded=0;orthogonalLoop=1;jettySize=auto;html=1;" edge="1" parent="1" source="a2P4Bpt3vMFnB8kFrf-n-13" target="a2P4Bpt3vMFnB8kFrf-n-11">
          <mxGeometry relative="1" as="geometry" />
        </mxCell>
        <mxCell id="a2P4Bpt3vMFnB8kFrf-n-13" value="SI" style="rounded=1;whiteSpace=wrap;html=1;" vertex="1" parent="1">
          <mxGeometry x="260" y="370" width="60" height="50" as="geometry" />
        </mxCell>
        <mxCell id="a2P4Bpt3vMFnB8kFrf-n-14" style="edgeStyle=orthogonalEdgeStyle;rounded=0;orthogonalLoop=1;jettySize=auto;html=1;entryX=0.375;entryY=-0.04;entryDx=0;entryDy=0;entryPerimeter=0;" edge="1" parent="1" source="a2P4Bpt3vMFnB8kFrf-n-13" target="a2P4Bpt3vMFnB8kFrf-n-7">
          <mxGeometry relative="1" as="geometry" />
        </mxCell>
        <mxCell id="a2P4Bpt3vMFnB8kFrf-n-15" style="edgeStyle=orthogonalEdgeStyle;rounded=0;orthogonalLoop=1;jettySize=auto;html=1;entryX=0.663;entryY=-0.1;entryDx=0;entryDy=0;entryPerimeter=0;" edge="1" parent="1" source="a2P4Bpt3vMFnB8kFrf-n-13" target="a2P4Bpt3vMFnB8kFrf-n-9">
          <mxGeometry relative="1" as="geometry" />
        </mxCell>
        <mxCell id="a2P4Bpt3vMFnB8kFrf-n-16" value="" style="edgeStyle=orthogonalEdgeStyle;rounded=0;orthogonalLoop=1;jettySize=auto;html=1;" edge="1" parent="1" source="a2P4Bpt3vMFnB8kFrf-n-17" target="a2P4Bpt3vMFnB8kFrf-n-22">
          <mxGeometry relative="1" as="geometry" />
        </mxCell>
        <mxCell id="a2P4Bpt3vMFnB8kFrf-n-17" value="Login" style="rounded=1;whiteSpace=wrap;html=1;" vertex="1" parent="1">
          <mxGeometry x="150" y="200" width="80" height="60" as="geometry" />
        </mxCell>
        <mxCell id="a2P4Bpt3vMFnB8kFrf-n-18" style="edgeStyle=orthogonalEdgeStyle;rounded=0;orthogonalLoop=1;jettySize=auto;html=1;entryX=0.5;entryY=0;entryDx=0;entryDy=0;" edge="1" parent="1" source="a2P4Bpt3vMFnB8kFrf-n-19" target="a2P4Bpt3vMFnB8kFrf-n-28">
          <mxGeometry relative="1" as="geometry" />
        </mxCell>
        <mxCell id="a2P4Bpt3vMFnB8kFrf-n-19" value="Registrazione" style="rounded=1;whiteSpace=wrap;html=1;" vertex="1" parent="1">
          <mxGeometry x="630" y="200" width="100" height="60" as="geometry" />
        </mxCell>
        <mxCell id="a2P4Bpt3vMFnB8kFrf-n-20" style="edgeStyle=orthogonalEdgeStyle;rounded=0;orthogonalLoop=1;jettySize=auto;html=1;entryX=0.5;entryY=0;entryDx=0;entryDy=0;" edge="1" parent="1" source="a2P4Bpt3vMFnB8kFrf-n-22" target="a2P4Bpt3vMFnB8kFrf-n-13">
          <mxGeometry relative="1" as="geometry" />
        </mxCell>
        <mxCell id="a2P4Bpt3vMFnB8kFrf-n-21" style="edgeStyle=orthogonalEdgeStyle;rounded=0;orthogonalLoop=1;jettySize=auto;html=1;entryX=0.5;entryY=0;entryDx=0;entryDy=0;" edge="1" parent="1" source="a2P4Bpt3vMFnB8kFrf-n-22" target="a2P4Bpt3vMFnB8kFrf-n-24">
          <mxGeometry relative="1" as="geometry" />
        </mxCell>
        <mxCell id="a2P4Bpt3vMFnB8kFrf-n-22" value="Autenticato?" style="rhombus;whiteSpace=wrap;html=1;" vertex="1" parent="1">
          <mxGeometry x="150" y="280" width="80" height="80" as="geometry" />
        </mxCell>
        <mxCell id="a2P4Bpt3vMFnB8kFrf-n-23" style="edgeStyle=orthogonalEdgeStyle;rounded=0;orthogonalLoop=1;jettySize=auto;html=1;" edge="1" parent="1">
          <mxGeometry relative="1" as="geometry">
            <mxPoint x="30" y="170" as="targetPoint" />
            <mxPoint x="60" y="405" as="sourcePoint" />
            <Array as="points">
              <mxPoint x="31" y="405" />
            </Array>
          </mxGeometry>
        </mxCell>
        <mxCell id="a2P4Bpt3vMFnB8kFrf-n-24" value="No" style="rounded=1;whiteSpace=wrap;html=1;" vertex="1" parent="1">
          <mxGeometry x="50" y="380" width="60" height="50" as="geometry" />
        </mxCell>
        <mxCell id="a2P4Bpt3vMFnB8kFrf-n-25" style="edgeStyle=orthogonalEdgeStyle;rounded=0;orthogonalLoop=1;jettySize=auto;html=1;exitX=1;exitY=0;exitDx=0;exitDy=0;entryX=0;entryY=0;entryDx=0;entryDy=0;" edge="1" parent="1" source="a2P4Bpt3vMFnB8kFrf-n-26" target="a2P4Bpt3vMFnB8kFrf-n-5">
          <mxGeometry relative="1" as="geometry">
            <Array as="points">
              <mxPoint x="130" y="120" />
            </Array>
          </mxGeometry>
        </mxCell>
        <mxCell id="a2P4Bpt3vMFnB8kFrf-n-26" value="Ritorno al menÃ¹ iniziale" style="rounded=1;whiteSpace=wrap;html=1;" vertex="1" parent="1">
          <mxGeometry x="10" y="110" width="120" height="60" as="geometry" />
        </mxCell>
        <mxCell id="a2P4Bpt3vMFnB8kFrf-n-27" style="edgeStyle=orthogonalEdgeStyle;rounded=0;orthogonalLoop=1;jettySize=auto;html=1;entryX=0.5;entryY=0;entryDx=0;entryDy=0;" edge="1" parent="1" source="a2P4Bpt3vMFnB8kFrf-n-28" target="a2P4Bpt3vMFnB8kFrf-n-30">
          <mxGeometry relative="1" as="geometry" />
        </mxCell>
        <mxCell id="a2P4Bpt3vMFnB8kFrf-n-28" value="Inserimento dati utenti" style="whiteSpace=wrap;html=1;aspect=fixed;" vertex="1" parent="1">
          <mxGeometry x="640" y="300" width="80" height="80" as="geometry" />
        </mxCell>
        <mxCell id="a2P4Bpt3vMFnB8kFrf-n-29" style="edgeStyle=orthogonalEdgeStyle;rounded=0;orthogonalLoop=1;jettySize=auto;html=1;entryX=0.5;entryY=1;entryDx=0;entryDy=0;" edge="1" parent="1" source="a2P4Bpt3vMFnB8kFrf-n-30" target="a2P4Bpt3vMFnB8kFrf-n-32">
          <mxGeometry relative="1" as="geometry" />
        </mxCell>
        <mxCell id="a2P4Bpt3vMFnB8kFrf-n-30" value="Salvataggio su file.txt" style="whiteSpace=wrap;html=1;aspect=fixed;" vertex="1" parent="1">
          <mxGeometry x="640" y="430" width="80" height="80" as="geometry" />
        </mxCell>
        <mxCell id="a2P4Bpt3vMFnB8kFrf-n-31" style="edgeStyle=orthogonalEdgeStyle;rounded=0;orthogonalLoop=1;jettySize=auto;html=1;" edge="1" parent="1" source="a2P4Bpt3vMFnB8kFrf-n-32">
          <mxGeometry relative="1" as="geometry">
            <mxPoint x="420" y="190" as="targetPoint" />
          </mxGeometry>
        </mxCell>
        <mxCell id="a2P4Bpt3vMFnB8kFrf-n-32" value="Ritorno al menÃ¹" style="rounded=1;whiteSpace=wrap;html=1;" vertex="1" parent="1">
          <mxGeometry x="460" y="310" width="120" height="60" as="geometry" />
        </mxCell>
        <mxCell id="a2P4Bpt3vMFnB8kFrf-n-33" value="1.Stampa elenco&lt;div&gt;2.Inserisci auto&lt;/div&gt;&lt;div&gt;3.Elimina auto&lt;/div&gt;&lt;div&gt;4.Esci&lt;/div&gt;" style="rounded=1;whiteSpace=wrap;html=1;" vertex="1" parent="1">
          <mxGeometry x="50" y="585" width="120" height="60" as="geometry" />
        </mxCell>
        <mxCell id="a2P4Bpt3vMFnB8kFrf-n-34" value="1.Ricerca&lt;div&gt;2.Noleggia&lt;/div&gt;&lt;div&gt;3.Esci&lt;/div&gt;" style="rounded=1;whiteSpace=wrap;html=1;" vertex="1" parent="1">
          <mxGeometry x="400" y="585" width="120" height="60" as="geometry" />
        </mxCell>
        <mxCell id="a2P4Bpt3vMFnB8kFrf-n-35" value="1.Stampa elenco&lt;div&gt;2.Inserisci auto&lt;/div&gt;&lt;div&gt;3.Elimina auto&lt;/div&gt;&lt;div&gt;4.Esci&lt;/div&gt;" style="rounded=1;whiteSpace=wrap;html=1;" vertex="1" parent="1">
          <mxGeometry x="230" y="585" width="120" height="60" as="geometry" />
        </mxCell>
        <mxCell id="a2P4Bpt3vMFnB8kFrf-n-36" value="Uscita dal programma" style="ellipse;whiteSpace=wrap;html=1;" vertex="1" parent="1">
          <mxGeometry x="380" y="760" width="150" height="90" as="geometry" />
        </mxCell>
      </root>
    </mxGraphModel>
  </diagram>
</mxfile>
